<svg width="280" height="61" viewBox="0 0 280 61" fill="none" xmlns="http://www.w3.org/2000/svg">
<g clip-path="url(#clip0_995_36862)">
<mask id="mask0_995_36862" style="mask-type:luminance" maskUnits="userSpaceOnUse" x="0" y="0" width="280" height="61">
<path d="M280 0H0V60.6186H280V0Z" fill="white"/>
</mask>
<g mask="url(#mask0_995_36862)">
<path d="M156.072 0C163.947 0.0789256 170.152 1.0655 175.561 4.93285C177.868 6.59028 177.947 6.94547 176.197 9.1159C174.606 11.1285 172.936 13.1016 171.305 15.0748C170.311 16.2981 169.277 16.2981 168.083 15.3905C162.793 11.3653 156.907 11.0101 151.02 13.4963C145.094 15.9824 141.673 20.5996 140.878 27.032C140.202 32.6356 141.435 37.6476 145.532 41.6727C147.997 44.1193 151.14 45.6189 154.6 45.6189C158.219 45.6189 161.839 45.106 165.418 44.7114C167.367 44.5139 168.004 43.2118 167.964 41.3569C167.845 35.7927 167.805 35.7531 162.236 35.8718C161.839 35.8718 161.441 35.911 161.043 35.911C158.14 35.9901 157.862 35.7534 157.782 32.8726C157.742 31.0967 157.782 29.3209 157.782 27.545C157.782 26.006 158.418 25.3351 160.049 25.2956C165.259 25.1773 170.47 24.9405 175.68 24.7432C178.226 24.6642 179.299 25.927 178.981 28.4132C178.782 30.0313 178.822 31.6885 178.862 33.3064C178.981 38.8314 179.22 44.356 179.18 49.881C179.18 50.9069 178.345 52.446 177.47 52.8406C169.356 56.7081 161.043 59.194 151.776 57.2606C145.452 55.9189 140.003 53.4719 135.668 48.6576C132.685 45.3427 130.776 41.3964 129.344 37.1739C126.679 29.3997 128.19 22.2175 131.969 15.2326C137.537 5.13018 146.089 0.236777 156.072 0Z" fill="#191918"/>
<path d="M81.457 0.670585C82.5308 0.710048 83.0478 1.97285 82.3319 2.76211C80.3829 4.8931 78.633 6.82678 76.8431 8.72099C71.9113 13.9301 66.9793 19.1392 61.9678 24.3088C60.735 25.5716 61.5302 26.5581 62.2461 27.4263C66.2236 32.3198 70.201 37.2527 74.3773 41.9881C78.1161 46.2502 82.133 50.2357 85.991 54.419C86.3888 54.8136 86.5876 55.6423 86.4684 56.1948C86.3888 56.5499 85.5537 56.9049 85.0364 56.9049C80.8603 56.9445 76.684 56.9445 72.508 56.8261C71.7124 56.7866 70.5988 56.2736 70.1213 55.6423C65.7066 50.2357 61.411 44.7899 57.1155 39.3048C56.0018 37.8444 55.0472 36.266 54.0132 34.7664C53.2177 33.6219 52.1439 33.8194 51.2687 34.6086C48.8425 36.8185 46.6949 39.0285 47.2118 42.8169C47.689 46.1318 47.5299 49.4861 47.7687 52.8403C47.9676 55.879 47.4506 56.5894 44.4277 56.7078C42.3595 56.7866 40.3311 56.7866 38.2628 56.8261C36.5923 56.8657 35.8765 56.0369 35.8765 54.3794C35.916 37.5289 35.916 20.7177 35.9558 3.86706C35.9558 0.907352 36.8311 0.512734 40.3709 0.670585C41.9219 0.74951 43.4731 0.670579 45.0244 0.591654C46.8141 0.512728 47.5698 1.30199 47.5698 3.03835C47.5698 8.08958 47.4107 19.297 47.5698 19.81C47.7687 20.5204 48.0074 21.5069 48.4845 21.7042C48.962 21.9015 49.996 21.3885 50.4336 20.915C52.7007 18.271 63.5191 5.32719 66.8601 1.69661C67.4567 1.0652 68.5704 0.670594 69.4851 0.631131C72.3486 0.47328 78.0364 0.512734 81.457 0.670585Z" fill="#191918"/>
<path d="M242.937 56.8654C241.346 56.8654 239.715 57.0233 238.164 56.7866C237.448 56.6683 236.494 55.9579 236.215 55.287C235.181 53.0375 234.306 50.6699 233.55 48.3416C233.153 47.1182 232.437 46.6841 231.204 46.6841C224.721 46.6841 218.198 46.6841 211.715 46.6841C210.005 46.6841 208.851 47.2761 208.334 49.052C207.737 51.0645 206.902 52.9982 206.345 55.0503C205.948 56.4316 205.112 56.9838 203.76 56.9838C200.578 56.9838 197.396 56.9838 194.214 56.9445C192.345 56.905 191.828 56.1946 192.544 54.4187C193.777 51.3012 195.129 48.2232 196.521 45.1845C199.226 39.2652 202.129 33.4641 204.794 27.5447C208.453 19.4548 211.993 11.3255 215.573 3.23563C215.692 2.91992 215.772 2.60422 216.01 2.32798C217.323 0.0786032 221.698 0.867854 224.045 0.867854C225.596 0.710003 226.471 1.85442 227.067 3.23563C231.601 13.8116 236.176 24.3482 240.749 34.8848C243.494 41.1987 246.437 47.4733 249.181 53.7874C250.255 56.1946 249.738 56.8262 247.073 56.8654C245.681 56.905 244.289 56.8654 242.897 56.8654C242.937 56.905 242.937 56.8654 242.937 56.8654ZM221.459 18.2315C220.903 19.0207 220.743 19.1786 220.664 19.3364C218.476 24.1114 216.289 28.8865 214.141 33.6615C213.425 35.2794 214.539 35.674 215.772 35.7136C219.55 35.7528 223.329 35.7528 227.067 35.674C228.857 35.6345 229.136 35.0427 228.42 33.4245C227.187 30.5832 226.073 27.7025 224.8 24.9007C223.846 22.8092 222.732 20.7965 221.459 18.2315Z" fill="#191918"/>
<path d="M278.614 53.353C278.614 56.7468 278.574 56.7863 275.233 56.8256C272.926 56.8651 270.579 56.668 268.272 56.8651C266.323 57.0626 265.965 56.1547 266.005 54.6159C266.005 50.1959 266.005 45.8155 266.005 41.3958C266.045 28.8466 266.045 16.2974 266.085 3.74828C266.085 0.906951 266.562 0.472865 269.466 0.472865C271.574 0.472865 273.721 0.433411 275.829 0.433411C278.096 0.433411 278.494 0.788566 278.494 3.03794C278.534 11.5619 278.494 20.1253 278.494 28.6493C278.574 28.7282 278.653 45.1447 278.614 53.353Z" fill="#191918"/>
<path d="M101.542 4.26192C101.542 1.14434 101.9 0.749726 105.082 0.670801C107.19 0.631338 109.338 0.670812 111.446 0.63135C113.236 0.591887 113.912 1.42059 113.912 3.15696C113.832 18.1923 113.912 52.2485 113.952 54.1823C113.992 55.7607 113.315 56.629 111.605 56.629C109.418 56.629 107.23 56.7473 105.043 56.8657C102.617 56.9448 101.94 56.3923 101.94 53.9456C101.9 49.5652 101.542 14.167 101.542 4.26192Z" fill="#191918"/>
<path d="M0.079546 28.9243C0.079546 20.6371 0.079546 12.3499 0.079546 4.06272C0.079546 1.3398 0.755697 0.668949 3.46031 0.629486C5.52853 0.629486 7.55697 0.668949 9.62522 0.629486C11.2162 0.590023 11.9718 1.30035 12.0116 2.83939C12.0116 2.95779 12.0116 3.11563 12.0116 3.23401C12.0116 20.203 11.9718 37.1719 11.9321 54.141C11.9321 56.3115 11.2957 56.8244 9.18769 56.8244C6.92059 56.8244 4.69329 56.864 2.42619 56.8244C0.357958 56.8244 0 56.3903 0 54.1803C0.0397736 47.9452 0.0397724 41.6706 0.079546 35.4356C0.11932 33.2652 0.11932 31.0947 0.079546 28.9243C0.11932 28.9243 0.11932 28.9243 0.079546 28.9243Z" fill="#191918"/>
</g>
</g>
<defs>
<clipPath id="clip0_995_36862">
<rect width="280" height="60.6186" fill="white"/>
</clipPath>
</defs>
</svg>
