<svg width="76" height="76" viewBox="0 0 76 76" fill="none" xmlns="http://www.w3.org/2000/svg">
<g clip-path="url(#clip0_631_1211)">
<path d="M5.58239 36V9.81818H10.2102V19.6108H10.402C10.6406 19.1335 10.9773 18.6264 11.4119 18.0895C11.8466 17.544 12.4347 17.0795 13.1761 16.696C13.9176 16.304 14.8636 16.108 16.0142 16.108C17.5313 16.108 18.8991 16.4957 20.1179 17.2713C21.3452 18.0384 22.3168 19.1761 23.0327 20.6847C23.7571 22.1847 24.1193 24.0256 24.1193 26.2074C24.1193 28.3636 23.7656 30.196 23.0582 31.7045C22.3509 33.2131 21.3878 34.3636 20.169 35.1562C18.9503 35.9489 17.5696 36.3452 16.027 36.3452C14.902 36.3452 13.9688 36.1577 13.2273 35.7827C12.4858 35.4077 11.8892 34.956 11.4375 34.4276C10.9943 33.8906 10.6491 33.3835 10.402 32.9062H10.1335V36H5.58239ZM10.1207 26.1818C10.1207 27.4517 10.2997 28.5639 10.6577 29.5185C11.0241 30.473 11.5483 31.2187 12.2301 31.7557C12.9205 32.2841 13.7557 32.5483 14.7358 32.5483C15.7585 32.5483 16.6151 32.2756 17.3054 31.7301C17.9957 31.1761 18.5156 30.4219 18.8651 29.4673C19.223 28.5043 19.402 27.4091 19.402 26.1818C19.402 24.9631 19.2273 23.8807 18.8778 22.9347C18.5284 21.9886 18.0085 21.2472 17.3182 20.7102C16.6278 20.1733 15.767 19.9048 14.7358 19.9048C13.7472 19.9048 12.9077 20.1648 12.2173 20.6847C11.527 21.2045 11.0028 21.9332 10.6449 22.8707C10.2955 23.8082 10.1207 24.9119 10.1207 26.1818Z" fill="#FFE500"/>
</g>
<rect x="2" y="2" width="34" height="34" rx="5" stroke="#93C5FD" stroke-width="2"/>
<rect x="40" y="2" width="34" height="34" rx="5" stroke="#93C5FD" stroke-width="2"/>
<path d="M43.0872 9.35516C41.8084 9.35482 40.541 9.59431 39.3506 10.0612V29.1688C40.7555 29.7188 42.2645 29.9522 43.7699 29.8523C45.2753 29.7525 46.7402 29.3218 48.0602 28.591C49.3801 27.8603 50.5227 26.8474 51.4064 25.6245C52.2901 24.4017 52.8933 22.999 53.1729 21.5164C53.4525 20.0337 53.4016 18.5077 53.024 17.047C52.6464 15.5863 51.9512 14.2268 50.9881 13.0655C50.0249 11.9041 48.8175 10.9695 47.4519 10.3282C46.0862 9.68688 44.5959 9.35464 43.0872 9.35516Z" fill="#FF6242"/>
<g clip-path="url(#clip1_631_1211)">
<path d="M36.9176 47.3636L29.9247 67H24.8111L17.8182 47.3636H22.7528L27.2656 61.9503H27.4702L31.9957 47.3636H36.9176Z" fill="#FF6196"/>
</g>
<rect x="2" y="40" width="34" height="34" rx="5" stroke="#93C5FD" stroke-width="2"/>
<g clip-path="url(#clip2_631_1211)">
<path d="M53.0057 55.4943V67H48.3778V47.3636H52.8011V50.7003H53.0312C53.483 49.6009 54.2031 48.7273 55.1918 48.0795C56.1889 47.4318 57.4205 47.108 58.8864 47.108C60.2415 47.108 61.4219 47.3977 62.4276 47.9773C63.4418 48.5568 64.2259 49.3963 64.7798 50.4957C65.3423 51.5952 65.6193 52.929 65.6108 54.4972V67H60.983V55.2131C60.983 53.9006 60.642 52.8736 59.9602 52.1321C59.2869 51.3906 58.3537 51.0199 57.1605 51.0199C56.3509 51.0199 55.6307 51.1989 55 51.5568C54.3778 51.9062 53.8878 52.4134 53.5298 53.0781C53.1804 53.7429 53.0057 54.5483 53.0057 55.4943Z" fill="#46B000"/>
</g>
<rect x="40" y="40" width="34" height="34" rx="5" stroke="#93C5FD" stroke-width="2"/>
<defs>
<clipPath id="clip0_631_1211">
<rect x="1" y="1" width="36" height="36" rx="6" fill="white"/>
</clipPath>
<clipPath id="clip1_631_1211">
<rect x="1" y="39" width="36" height="36" rx="6" fill="white"/>
</clipPath>
<clipPath id="clip2_631_1211">
<rect x="39" y="39" width="36" height="36" rx="6" fill="white"/>
</clipPath>
</defs>
</svg>
