<svg width="216" height="50" viewBox="0 0 216 50" fill="none" xmlns="http://www.w3.org/2000/svg">
<path d="M15.8588 41.2158C14.6588 41.2158 13.743 40.8842 13.1115 40.2211C12.4799 39.5579 12.1641 38.6263 12.1641 37.4263V13.4579H3.77988C2.80093 13.4579 2.04304 13.1895 1.5062 12.6526C0.969349 12.1158 0.700928 11.3737 0.700928 10.4263C0.700928 9.44736 0.969349 8.70526 1.5062 8.19999C2.04304 7.66315 2.80093 7.39473 3.77988 7.39473H27.8904C28.8693 7.39473 29.6272 7.66315 30.1641 8.19999C30.7009 8.70526 30.9693 9.44736 30.9693 10.4263C30.9693 11.3737 30.7009 12.1158 30.1641 12.6526C29.6272 13.1895 28.8693 13.4579 27.8904 13.4579H19.5062V37.4263C19.5062 38.6263 19.1904 39.5579 18.5588 40.2211C17.9588 40.8842 17.0588 41.2158 15.8588 41.2158Z" fill="#FFC617"/>
<path d="M34.0013 30.8895C33.2118 30.8895 32.5329 30.6211 31.9644 30.0842C31.4276 29.5474 31.1592 28.8842 31.1592 28.0947C31.1592 27.2737 31.4276 26.5947 31.9644 26.0579C32.5329 25.5211 33.2118 25.2526 34.0013 25.2526H43.7592C44.5487 25.2526 45.2118 25.5211 45.7487 26.0579C46.3171 26.5947 46.6013 27.2737 46.6013 28.0947C46.6013 28.8842 46.3171 29.5474 45.7487 30.0842C45.2118 30.6211 44.5487 30.8895 43.7592 30.8895H34.0013ZM68.561 41.3105C64.961 41.3105 61.8821 40.6 59.3242 39.1789C56.7663 37.7579 54.7926 35.7684 53.4031 33.2105C52.0452 30.6211 51.3663 27.5737 51.3663 24.0684C51.3663 21.4474 51.7452 19.0947 52.5031 17.0105C53.2926 14.8947 54.4294 13.0947 55.9137 11.6105C57.3979 10.0947 59.1979 8.92632 61.3137 8.10527C63.461 7.28421 65.8768 6.87369 68.561 6.87369C70.14 6.87369 71.7347 7.07895 73.3452 7.48948C74.9873 7.86842 76.4084 8.42106 77.6084 9.14737C78.3979 9.58948 78.9347 10.1421 79.2189 10.8053C79.5031 11.4684 79.5821 12.1316 79.4558 12.7947C79.361 13.4579 79.0926 14.0263 78.6505 14.5C78.24 14.9737 77.7189 15.2737 77.0873 15.4C76.4558 15.5263 75.7452 15.3842 74.9558 14.9737C74.0084 14.4053 73.0137 13.9947 71.9715 13.7421C70.9294 13.4895 69.8715 13.3632 68.7979 13.3632C66.6821 13.3632 64.8979 13.7895 63.4452 14.6421C62.0242 15.4632 60.9505 16.6632 60.2242 18.2421C59.4979 19.8211 59.1347 21.7632 59.1347 24.0684C59.1347 26.3421 59.4979 28.2842 60.2242 29.8947C60.9505 31.5053 62.0242 32.7368 63.4452 33.5895C64.8979 34.4105 66.6821 34.8211 68.7979 34.8211C69.8084 34.8211 70.8347 34.6947 71.8768 34.4421C72.9505 34.1895 73.9768 33.7947 74.9558 33.2579C75.7768 32.8474 76.5031 32.7053 77.1347 32.8316C77.7979 32.9263 78.3347 33.2105 78.7452 33.6842C79.1873 34.1263 79.4558 34.6632 79.5505 35.2947C79.6768 35.9263 79.6137 36.5579 79.361 37.1895C79.1084 37.8211 78.6347 38.3579 77.94 38.8C76.7715 39.5895 75.3347 40.2053 73.6294 40.6474C71.9242 41.0895 70.2347 41.3105 68.561 41.3105ZM92.9839 41.2158C91.8471 41.2158 90.9629 40.9 90.3313 40.2684C89.7313 39.6368 89.4313 38.7368 89.4313 37.5684V23.1211H84.3155C82.326 23.1211 81.3313 22.1895 81.3313 20.3263C81.3313 19.4421 81.5839 18.7632 82.0892 18.2895C82.626 17.7842 83.3681 17.5316 84.3155 17.5316H101.652C103.673 17.5316 104.684 18.4632 104.684 20.3263C104.684 21.2421 104.415 21.9368 103.879 22.4105C103.373 22.8842 102.631 23.1211 101.652 23.1211H96.5839V37.5684C96.5839 38.7368 96.2839 39.6368 95.6839 40.2684C95.0839 40.9 94.1839 41.2158 92.9839 41.2158ZM115.59 41.3105C113.884 41.3105 112.353 40.979 110.995 40.3158C109.637 39.6526 108.579 38.7526 107.821 37.6158C107.063 36.4789 106.684 35.2 106.684 33.779C106.684 32.0737 107.127 30.7316 108.011 29.7526C108.895 28.7421 110.332 28.0316 112.321 27.6211C114.311 27.179 116.948 26.9579 120.232 26.9579H122.742V30.6526H120.279C118.669 30.6526 117.358 30.7474 116.348 30.9368C115.369 31.0947 114.658 31.379 114.216 31.7895C113.805 32.2 113.6 32.7684 113.6 33.4947C113.6 34.3789 113.9 35.1053 114.5 35.6737C115.132 36.2421 116.032 36.5263 117.2 36.5263C118.116 36.5263 118.921 36.3211 119.616 35.9105C120.342 35.4684 120.911 34.8842 121.321 34.1579C121.732 33.4 121.937 32.5474 121.937 31.6V26.1526C121.937 24.7632 121.621 23.7842 120.99 23.2158C120.358 22.6158 119.284 22.3158 117.769 22.3158C116.916 22.3158 115.984 22.4263 114.974 22.6474C113.995 22.8368 112.905 23.1684 111.705 23.6421C111.011 23.9579 110.395 24.0368 109.858 23.879C109.321 23.6895 108.911 23.3737 108.627 22.9316C108.342 22.4579 108.2 21.9526 108.2 21.4158C108.2 20.8474 108.358 20.3105 108.674 19.8053C108.99 19.2684 109.511 18.8737 110.237 18.6211C111.721 18.0211 113.111 17.6105 114.405 17.3895C115.732 17.1684 116.948 17.0579 118.053 17.0579C120.484 17.0579 122.474 17.4211 124.021 18.1474C125.6 18.8421 126.784 19.9316 127.574 21.4158C128.363 22.8684 128.758 24.7474 128.758 27.0526V37.5684C128.758 38.7368 128.474 39.6368 127.905 40.2684C127.337 40.9 126.516 41.2158 125.442 41.2158C124.369 41.2158 123.532 40.9 122.932 40.2684C122.363 39.6368 122.079 38.7368 122.079 37.5684V35.8158L122.411 36.1C122.221 37.1737 121.811 38.1053 121.179 38.8947C120.579 39.6526 119.805 40.2526 118.858 40.6947C117.911 41.1053 116.821 41.3105 115.59 41.3105ZM152.217 49.7421C151.08 49.7421 150.196 49.4105 149.565 48.7474C148.965 48.0842 148.665 47.1526 148.665 45.9526V36.7632H149.138C148.633 38.2158 147.796 39.3368 146.628 40.1263C145.491 40.9158 144.149 41.3105 142.601 41.3105C140.865 41.3105 139.333 40.8053 138.007 39.7947C136.68 38.7842 135.638 37.379 134.88 35.579C134.122 33.7474 133.744 31.6 133.744 29.1368C133.744 26.6737 134.122 24.5421 134.88 22.7421C135.638 20.9105 136.68 19.5053 138.007 18.5263C139.333 17.5474 140.865 17.0579 142.601 17.0579C144.18 17.0579 145.538 17.4526 146.675 18.2421C147.844 19.0316 148.665 20.1368 149.138 21.5579H148.665V10.7579C148.665 9.5579 148.965 8.62632 149.565 7.96316C150.196 7.3 151.08 6.96842 152.217 6.96842C153.354 6.96842 154.238 7.3 154.87 7.96316C155.501 8.62632 155.817 9.5579 155.817 10.7579V21.5579H155.249C155.754 20.1368 156.575 19.0316 157.712 18.2421C158.88 17.4526 160.254 17.0579 161.833 17.0579C163.57 17.0579 165.101 17.5474 166.428 18.5263C167.786 19.5053 168.828 20.9105 169.554 22.7421C170.312 24.5421 170.691 26.6737 170.691 29.1368C170.691 31.6 170.312 33.7474 169.554 35.579C168.828 37.379 167.786 38.7842 166.428 39.7947C165.101 40.8053 163.57 41.3105 161.833 41.3105C160.286 41.3105 158.944 40.9158 157.807 40.1263C156.67 39.3368 155.817 38.2158 155.249 36.7632H155.817V45.9526C155.817 47.1526 155.501 48.0842 154.87 48.7474C154.27 49.4105 153.386 49.7421 152.217 49.7421ZM144.828 36.0053C145.649 36.0053 146.344 35.7684 146.912 35.2947C147.512 34.7895 147.97 34.0316 148.286 33.0211C148.601 32.0105 148.759 30.7158 148.759 29.1368C148.759 26.7684 148.396 25.0474 147.67 23.9737C146.944 22.8684 145.996 22.3158 144.828 22.3158C144.07 22.3158 143.391 22.5684 142.791 23.0737C142.191 23.5474 141.717 24.2895 141.37 25.3C141.054 26.279 140.896 27.5579 140.896 29.1368C140.896 30.7158 141.054 32.0105 141.37 33.0211C141.686 34.0316 142.144 34.7895 142.744 35.2947C143.344 35.7684 144.038 36.0053 144.828 36.0053ZM159.559 36.0053C160.38 36.0053 161.091 35.7684 161.691 35.2947C162.291 34.7895 162.749 34.0316 163.065 33.0211C163.38 32.0105 163.538 30.7158 163.538 29.1368C163.538 27.5579 163.365 26.279 163.017 25.3C162.701 24.2895 162.244 23.5474 161.644 23.0737C161.075 22.5684 160.38 22.3158 159.559 22.3158C158.801 22.3158 158.122 22.5684 157.522 23.0737C156.954 23.5474 156.496 24.2895 156.149 25.3C155.833 26.279 155.675 27.5579 155.675 29.1368C155.675 31.5053 156.022 33.2421 156.717 34.3474C157.444 35.4526 158.391 36.0053 159.559 36.0053ZM193.155 49.7421C192.019 49.7421 191.134 49.4105 190.503 48.7474C189.903 48.0842 189.603 47.1526 189.603 45.9526V36.7632H190.076C189.571 38.2158 188.734 39.3368 187.566 40.1263C186.429 40.9158 185.087 41.3105 183.54 41.3105C181.803 41.3105 180.271 40.8053 178.945 39.7947C177.619 38.7842 176.576 37.379 175.819 35.579C175.061 33.7474 174.682 31.6 174.682 29.1368C174.682 26.6737 175.061 24.5421 175.819 22.7421C176.576 20.9105 177.619 19.5053 178.945 18.5263C180.271 17.5474 181.803 17.0579 183.54 17.0579C185.119 17.0579 186.476 17.4526 187.613 18.2421C188.782 19.0316 189.603 20.1368 190.076 21.5579H189.603V10.7579C189.603 9.5579 189.903 8.62632 190.503 7.96316C191.134 7.3 192.019 6.96842 193.155 6.96842C194.292 6.96842 195.176 7.3 195.808 7.96316C196.44 8.62632 196.755 9.5579 196.755 10.7579V21.5579H196.187C196.692 20.1368 197.513 19.0316 198.65 18.2421C199.819 17.4526 201.192 17.0579 202.771 17.0579C204.508 17.0579 206.04 17.5474 207.366 18.5263C208.724 19.5053 209.766 20.9105 210.492 22.7421C211.25 24.5421 211.629 26.6737 211.629 29.1368C211.629 31.6 211.25 33.7474 210.492 35.579C209.766 37.379 208.724 38.7842 207.366 39.7947C206.04 40.8053 204.508 41.3105 202.771 41.3105C201.224 41.3105 199.882 40.9158 198.745 40.1263C197.608 39.3368 196.755 38.2158 196.187 36.7632H196.755V45.9526C196.755 47.1526 196.44 48.0842 195.808 48.7474C195.208 49.4105 194.324 49.7421 193.155 49.7421ZM185.766 36.0053C186.587 36.0053 187.282 35.7684 187.85 35.2947C188.45 34.7895 188.908 34.0316 189.224 33.0211C189.54 32.0105 189.697 30.7158 189.697 29.1368C189.697 26.7684 189.334 25.0474 188.608 23.9737C187.882 22.8684 186.934 22.3158 185.766 22.3158C185.008 22.3158 184.329 22.5684 183.729 23.0737C183.129 23.5474 182.655 24.2895 182.308 25.3C181.992 26.279 181.834 27.5579 181.834 29.1368C181.834 30.7158 181.992 32.0105 182.308 33.0211C182.624 34.0316 183.082 34.7895 183.682 35.2947C184.282 35.7684 184.976 36.0053 185.766 36.0053ZM200.497 36.0053C201.319 36.0053 202.029 35.7684 202.629 35.2947C203.229 34.7895 203.687 34.0316 204.003 33.0211C204.319 32.0105 204.476 30.7158 204.476 29.1368C204.476 27.5579 204.303 26.279 203.955 25.3C203.64 24.2895 203.182 23.5474 202.582 23.0737C202.013 22.5684 201.319 22.3158 200.497 22.3158C199.74 22.3158 199.061 22.5684 198.461 23.0737C197.892 23.5474 197.434 24.2895 197.087 25.3C196.771 26.279 196.613 27.5579 196.613 29.1368C196.613 31.5053 196.961 33.2421 197.655 34.3474C198.382 35.4526 199.329 36.0053 200.497 36.0053Z" fill="#1F2937"/>
</svg>
